<svg xmlns="http://www.w3.org/2000/svg" viewBox="0 0 1600 1000" preserveAspectRatio="xMidYMid slice">
  <defs>
    <linearGradient id="g" x1="0" x2="1" y1="0" y2="1">
      <stop offset="0" stop-color="#eff6f2"/>
      <stop offset="0.55" stop-color="#f7efe5"/>
      <stop offset="1" stop-color="#dbe8ea"/>
    </linearGradient>
    <radialGradient id="r" cx="72%" cy="18%" r="45%">
      <stop offset="0" stop-color="#ffffff" stop-opacity=".78"/>
      <stop offset="1" stop-color="#ffffff" stop-opacity="0"/>
    </radialGradient>
  </defs>
  <rect width="1600" height="1000" fill="url(#g)"/>
  <circle cx="1150" cy="190" r="220" fill="url(#r)"/>
  <path d="M-80 710 C260 620 420 750 690 650 C960 550 1120 650 1680 520 L1680 1000 L-80 1000Z" fill="#b5c8c5" opacity=".28"/>
  <path d="M-80 780 C300 690 530 850 850 735 C1120 640 1320 720 1680 650 L1680 1000 L-80 1000Z" fill="#718e8e" opacity=".20"/>
  <path d="M120 365 C330 335 460 382 650 345 C840 308 980 355 1220 315" fill="none" stroke="#7f9998" stroke-width="4" opacity=".22" stroke-linecap="round"/>
</svg>
