<svg xmlns="http://www.w3.org/2000/svg" viewBox="0 0 1600 1000" preserveAspectRatio="xMidYMid slice">
  <defs><linearGradient id="g" x1="0" x2="1" y1="0" y2="1"><stop offset="0" stop-color="#edf4e7"/><stop offset="1" stop-color="#f6eadc"/></linearGradient></defs>
  <rect width="1600" height="1000" fill="url(#g)"/>
  <g opacity=".18" stroke="#44624f" stroke-width="8" stroke-linecap="round">
    <path d="M250 -60 C230 190 270 450 240 1060"/>
    <path d="M330 -40 C335 225 315 510 350 1060"/>
    <path d="M1370 -70 C1320 220 1370 500 1340 1060"/>
  </g>
  <g opacity=".20" fill="none" stroke="#44624f" stroke-width="5" stroke-linecap="round">
    <path d="M252 230 C135 180 96 118 82 70"/>
    <path d="M328 345 C470 310 535 245 570 185"/>
    <path d="M1348 420 C1220 370 1160 290 1130 225"/>
    <path d="M1365 560 C1470 520 1530 455 1560 395"/>
  </g>
  <circle cx="980" cy="240" r="230" fill="#fff" opacity=".30"/>
</svg>
